HIERARCHY
ROOT Hips
{
	OFFSET 0.000000 0.000000 0.000000 
	CHANNELS 6 Xposition Yposition Zposition Zrotation Yrotation Xrotation
	JOINT LeftUpLeg
	{
		OFFSET 1.363060 -1.794630 0.839290 
		CHANNELS 3 Zrotation Yrotation Xrotation
		JOINT LeftLeg
		{
			OFFSET 2.448110 -6.726130 0.000000 
			CHANNELS 3 Zrotation Yrotation Xrotation
			JOINT LeftFoot
			{
				OFFSET 2.562200 -7.039590 0.000000 
				CHANNELS 3 Zrotation Yrotation Xrotation
				JOINT LeftToeBase
				{
					OFFSET 0.157640 -0.433110 2.322550 
					CHANNELS 3 Zrotation Yrotation Xrotation
					End Site
					{
						OFFSET 0.000000 0.000000 0.000000 
					}
				}
			}
		}
	}
	JOINT RightUpLeg
	{
		OFFSET -1.305520 -1.794630 0.839290 
		CHANNELS 3 Zrotation Yrotation Xrotation
		JOINT RightLeg
		{
			OFFSET -2.542530 -6.985550 0.000000 
			CHANNELS 3 Zrotation Yrotation Xrotation
			JOINT RightFoot
			{
				OFFSET -2.568260 -7.056230 0.000000 
				CHANNELS 3 Zrotation Yrotation Xrotation
				JOINT RightToeBase
				{
					OFFSET -0.164730 -0.452590 2.363150 
					CHANNELS 3 Zrotation Yrotation Xrotation
					End Site
					{
						OFFSET 0.000000 0.000000 0.000000 
					}
				}
			}
		}
	}
	JOINT Spine
	{
		OFFSET 0.028270 2.035590 -0.193380 
		CHANNELS 3 Zrotation Yrotation Xrotation
		JOINT Spine1
		{
			OFFSET 0.056720 2.048850 -0.042750 
			CHANNELS 3 Zrotation Yrotation Xrotation
			JOINT Neck1
			{
				OFFSET -0.054170 1.746240 0.172020 
				CHANNELS 3 Zrotation Yrotation Xrotation
				JOINT Head
				{
					OFFSET 0.104070 1.761360 -0.123970 
					CHANNELS 3 Zrotation Yrotation Xrotation
					End Site
					{
						OFFSET 0.000000 0.000000 0.000000 
					}
				}
			}
			JOINT LeftArm
			{
				OFFSET 3.362410 1.200890 -0.311210 
				CHANNELS 3 Zrotation Yrotation Xrotation
				JOINT LeftForeArm
				{
					OFFSET 4.983000 -0.000000 -0.000000 
					CHANNELS 3 Zrotation Yrotation Xrotation
					JOINT LeftHand
					{
						OFFSET 3.483560 -0.000000 -0.000000 
						CHANNELS 3 Zrotation Yrotation Xrotation
						JOINT LeftHandIndex1
						{
							OFFSET 0.715260 -0.000000 -0.000000 
							CHANNELS 3 Zrotation Yrotation Xrotation
							End Site
							{
								OFFSET 0.000000 0.000000 0.000000 
							}
						}
					}
				}
			}
			JOINT RightArm
			{
				OFFSET -3.136600 1.374050 -0.404650 
				CHANNELS 3 Zrotation Yrotation Xrotation
				JOINT RightForeArm
				{
					OFFSET -5.241900 -0.000000 -0.000000 
					CHANNELS 3 Zrotation Yrotation Xrotation
					JOINT RightHand
					{
						OFFSET -3.444170 -0.000000 -0.000000 
						CHANNELS 3 Zrotation Yrotation Xrotation
						JOINT RightHandIndex1
						{
							OFFSET -0.622530 -0.000000 -0.000000 
							CHANNELS 3 Zrotation Yrotation Xrotation
							End Site
							{
								OFFSET 0.000000 0.000000 0.000000 
							}
						}
					}
				}
			}
		}
	}
}
MOTION
Frames: 13
Frame Time: 0.041667
1.766622 17.903114 -3.926840 -6.668244 -70.568783 17.649525 -11.010303 -10.207345 -14.133434 0.310310 6.012804 20.815266 0.677900 -0.583495 -2.797205 0.408600 -4.103600 -11.368400 15.726023 5.497462 -20.449850 -1.765143 -8.873165 29.131367 2.973638 -10.976465 -8.807605 -0.004900 0.454200 -1.247900 6.780756 3.300643 2.666518 0.789931 1.880916 -2.662855 -7.611635 13.494428 12.193362 -1.294300 5.523400 7.571000 -85.800828 -1.210655 9.078933 15.832406 -21.704054 -2.836368 0.156359 0.318396 0.284636 -7.125000 0.000000 0.000000 77.322939 -5.490056 10.930382 -18.710195 26.460641 -4.746988 0.211320 -0.301600 -0.240517 7.125000 0.000000 0.000000 
1.794538 17.903015 -3.936442 -9.643921 -69.812479 20.713017 -9.747589 -10.315693 -15.119470 0.458834 6.365629 21.687637 0.836265 -1.043813 -2.925109 0.402900 -4.075100 -11.287900 16.979131 5.537882 -20.573281 -1.704751 -8.702330 28.775976 3.183772 -11.506913 -8.842607 -0.006000 0.501400 -1.377700 7.685066 3.222008 2.161672 0.276988 1.803600 -2.688281 -7.620004 13.473176 12.085583 -1.312500 5.520500 7.533500 -85.888403 -1.333072 8.772238 15.787291 -21.659413 -2.821487 0.157558 0.315780 0.607623 -7.125000 0.000000 0.000000 77.362368 -5.496979 11.007048 -18.808586 26.573828 -4.791864 0.208925 -0.301096 -0.245697 7.125000 0.000000 0.000000 
1.808595 17.902025 -3.935749 -10.299598 -69.583119 21.382819 -9.432843 -10.284243 -15.235164 0.435772 6.328558 21.540187 0.899016 -1.270132 -2.712311 0.381500 -3.966700 -10.983000 17.281368 5.536321 -20.708515 -1.729002 -8.721722 28.881285 3.220764 -11.617416 -8.952791 -0.009200 0.618200 -1.698900 7.839662 3.217488 2.134314 0.172699 1.795020 -2.682238 -7.664584 13.467010 11.996885 -1.335400 5.520200 7.514400 -85.975486 -1.514161 8.427872 15.739666 -21.599776 -2.802532 0.159947 0.312950 0.986979 -7.125000 0.000000 0.000000 77.394629 -5.462015 11.088820 -18.913171 26.701233 -4.843707 0.211714 -0.304306 -0.291947 7.125000 0.000000 0.000000 
1.810179 17.902916 -3.921791 -8.819476 -69.829276 19.911253 -10.092359 -10.340992 -15.148236 0.471464 6.360676 21.737018 0.911608 -1.334532 -2.924544 0.354200 -3.823500 -10.580600 16.647737 5.400351 -20.691354 -1.712756 -8.734867 28.825073 3.206835 -11.562892 -8.834430 -0.013600 0.752300 -2.067500 7.189683 3.277842 2.434570 0.386610 1.847638 -2.637528 -7.524732 13.457737 11.908506 -1.279300 5.525500 7.476900 -85.886182 -1.629329 8.627363 15.721422 -21.566929 -2.794459 0.160277 0.313423 0.944847 -7.125000 0.000000 0.000000 77.418449 -5.378920 11.004453 -18.964422 26.765069 -4.870906 0.210021 -0.309096 -0.036654 7.125000 0.000000 0.000000 
1.799488 17.904698 -3.890806 -4.969885 -70.439602 15.984091 -11.723098 -10.582237 -14.335254 0.438013 6.203899 21.521668 0.758125 -0.887464 -3.119828 0.334300 -3.715900 -10.278800 15.100527 4.973860 -20.654626 -1.729687 -8.862127 28.964682 3.055452 -11.156313 -8.589650 -0.019800 0.907600 -2.494700 5.772225 3.336460 3.138172 0.942050 1.921051 -2.603784 -7.283281 13.462017 11.768727 -1.180100 5.543600 7.409600 -85.809447 -1.684461 8.706143 15.776201 -21.627929 -2.808906 0.163098 0.311426 0.951603 -7.125000 0.000000 0.000000 77.397792 -5.330506 11.159954 -19.073211 26.905531 -4.925748 0.208140 -0.307014 -0.011088 7.125000 0.000000 0.000000 
1.823444 17.903708 -3.896251 -7.353152 -69.859489 18.602733 -10.674102 -10.540032 -14.877434 0.386248 6.147381 21.219673 0.856705 -1.237516 -2.595435 0.330000 -3.692200 -10.212200 16.091960 5.049115 -21.099537 -1.774480 -8.877831 29.158557 3.144196 -11.419394 -8.870749 -0.021300 0.941600 -2.588000 6.446399 3.228591 2.690618 0.545435 1.835110 -2.510977 -7.258348 13.457554 11.478176 -1.183800 5.559200 7.306400 -85.819547 -1.677606 8.420177 15.889917 -21.794062 -2.850659 0.166208 0.308515 1.304268 -7.125000 0.000000 0.000000 77.466508 -5.205339 11.121904 -19.156804 26.990782 -4.960529 0.204112 -0.302627 0.165537 7.125000 0.000000 0.000000 
1.820177 17.903114 -3.874077 -4.038414 -70.414373 15.177797 -12.081036 -10.679354 -14.209880 0.367432 6.031249 21.084611 0.708911 -0.796461 -2.766115 0.320800 -3.640500 -10.067400 14.751290 4.826193 -20.992995 -1.789055 -8.982055 29.273630 3.007982 -11.060612 -8.718878 -0.024400 1.008100 -2.771100 5.248775 3.299936 3.319733 1.087176 1.909035 -2.567597 -7.337308 13.507993 11.349996 -1.212000 5.586800 7.286900 -85.924104 -1.744853 7.848200 16.046244 -22.008127 -2.902014 0.170502 0.303767 2.003525 -7.125000 0.000000 0.000000 77.457337 -5.093351 11.307705 -19.289080 27.159399 -5.022566 0.208052 -0.286904 0.170937 7.125000 0.000000 0.000000 
1.831958 17.902817 -3.868830 -4.636363 -70.236060 15.796715 -11.857619 -10.617013 -14.407062 0.380198 6.063294 21.152524 0.778592 -1.045478 -2.642095 0.300900 -3.526800 -9.749000 14.981348 4.736977 -21.119599 -1.801706 -8.992217 29.341810 2.952351 -10.937014 -8.829029 -0.016000 0.817000 -2.245400 5.274335 3.272420 3.270905 0.961176 1.887623 -2.552850 -7.256268 13.553945 11.337393 -1.190900 5.619400 7.285900 -85.896956 -1.767257 7.776409 16.111485 -22.104639 -2.927312 0.170044 0.304114 2.001232 -7.125000 0.000000 0.000000 77.446497 -5.175111 11.847994 -19.501405 27.408297 -5.120841 0.222444 -0.269931 -0.363300 7.125000 0.000000 0.000000 
1.843738 17.900441 -3.862197 -4.675426 -70.049454 15.850096 -11.824572 -10.619052 -14.432756 0.360412 6.019202 21.025897 0.808701 -1.179184 -2.451915 0.301100 -3.528000 -9.752300 15.025144 4.626591 -21.266034 -1.833025 -9.042665 29.501463 2.919222 -10.873839 -8.947760 -0.011100 0.680300 -1.869500 5.224357 3.237468 3.233794 0.927248 1.865876 -2.573709 -7.200336 13.549913 11.250217 -1.175800 5.626200 7.249200 -85.919103 -1.812147 7.757927 16.092704 -22.080990 -2.920478 0.172949 0.302820 2.044566 -7.125000 0.000000 0.000000 77.444565 -5.225697 11.982565 -19.633809 27.569721 -5.186728 0.220091 -0.268109 -0.478684 7.125000 0.000000 0.000000 
1.855122 17.899649 -3.852496 -3.975214 -69.904695 15.224684 -12.079263 -10.760908 -14.500609 0.379589 6.028909 21.111258 0.862702 -1.401091 -2.432395 0.249700 -3.215500 -8.879300 14.787827 4.459755 -21.438736 -1.844893 -9.079409 29.562017 2.916543 -10.864324 -8.885374 -0.011500 0.693600 -1.906100 5.106253 3.196565 3.213568 1.040143 1.848979 -2.582844 -7.171712 13.542482 11.090091 -1.157800 5.627600 7.176400 -86.043724 -1.855209 7.786676 16.086874 -22.073382 -2.920081 0.173815 0.303396 2.008857 -7.125000 0.000000 0.000000 77.352021 -5.272141 12.032735 -19.724402 27.685211 -5.233627 0.218134 -0.267079 -0.415482 7.125000 0.000000 0.000000 
1.866803 17.897174 -3.841211 -3.429247 -69.838863 14.660721 -12.310738 -10.744627 -14.508481 0.392936 6.032323 21.163568 0.935811 -1.688277 -2.392896 0.203200 -2.902400 -8.007200 14.575848 4.308281 -21.524283 -1.864219 -9.121656 29.656063 2.858996 -10.716924 -8.816572 -0.011200 0.682800 -1.876300 4.818496 3.224450 3.323020 1.083553 1.866246 -2.605939 -7.024634 13.513956 10.993244 -1.110300 5.627300 7.123700 -85.975910 -1.918861 8.154874 16.086165 -22.072480 -2.920999 0.166294 0.305547 1.716132 -7.125000 0.000000 0.000000 77.305680 -5.381657 12.370047 -19.875821 27.868797 -5.309322 0.227923 -0.261390 -0.851764 7.125000 0.000000 0.000000 
1.879276 17.895491 -3.830916 -2.971480 -69.790466 14.160866 -12.537089 -10.494379 -14.609339 0.408775 6.048130 21.234349 1.022273 -2.011900 -2.380480 0.223700 -3.044300 -8.402200 14.400942 4.209450 -21.564688 -1.881753 -9.155004 29.736656 2.861593 -10.724575 -8.812187 -0.012800 0.729400 -2.004500 4.385340 3.235551 3.514993 1.085160 1.874880 -2.621896 -6.834397 13.451736 10.932521 -1.059700 5.614700 7.097700 -85.765114 -2.016047 8.528448 16.104778 -22.096170 -2.925908 0.157490 0.305598 1.390225 -7.125000 0.000000 0.000000 77.385531 -5.405862 12.504069 -20.015594 28.033419 -5.377982 0.229043 -0.256252 -1.243512 7.125000 0.000000 0.000000 
1.891551 17.894304 -3.821313 -2.923051 -69.643894 14.076479 -12.593062 -10.317785 -14.737019 0.421759 6.065398 21.293535 1.094293 -2.282595 -2.331752 0.248500 -3.207500 -8.857100 14.391437 4.064536 -21.643702 -1.897829 -9.180296 29.818480 2.818879 -10.629210 -8.891547 -0.006900 0.536800 -1.475000 4.181891 3.190063 3.744162 1.055247 1.856735 -2.599578 -6.802758 13.426468 10.901570 -1.054900 5.604500 7.117400 -85.653750 -2.178345 8.636269 16.107298 -22.101775 -2.925701 0.154824 0.305244 1.314134 -7.125000 0.000000 0.000000 77.481289 -5.207013 12.234422 -20.018910 28.032530 -5.378392 0.225847 -0.258154 -1.104925 7.125000 0.000000 0.000000 
